# xmcd
# 
# Track frame offsets:
#     150
#     24209
#     41676
#     55963
#     75113
#     94104
#     109367
#     125037
#     142363
#     159506
#     178505
#     195556
# 
# Disc length: 2840
# 
# Revision: 0
# Processed by: cddbd v1.5.2PL0 Copyright (c) Steve Scherf et al.
# Submitted via: fre:ac v1.0.31
# 
DISCID=9e0b160c
DTITLE=Las Voces de Montiel - La Peña
DYEAR=2007
DGENRE=Folklore
TTITLE0=La Peña
TTITLE1=La Tierra que nos parió
TTITLE2=El fogón
TTITLE3=Compadre que tiene el vino
TTITLE4=Tontos de Dios
TTITLE5=Volvamos al pago
TTITLE6=Amigo Viajero
TTITLE7=María Madre
TTITLE8=Canción para don Pedro
TTITLE9=Ciudad de Córdoba
TTITLE10=A Reconquista
TTITLE11=Los caminos del inmigrante
EXTD=
EXTT0=
EXTT1=
EXTT2=
EXTT3=
EXTT4=
EXTT5=
EXTT6=
EXTT7=
EXTT8=
EXTT9=
EXTT10=
EXTT11=
PLAYORDER=
